<?xml version="1.0" encoding="UTF-8"?>
<svg xmlns="http://www.w3.org/2000/svg" xmlns:xlink="http://www.w3.org/1999/xlink" viewBox="0 0 16 16" width="16px" height="16px">
<g id="surface30929783">
<path style=" stroke:none;fill-rule:nonzero;fill:rgb(8.627451%,39.607844%,73.725492%);fill-opacity:1;" d="M 13.375 12.085938 L 12.085938 13.375 C 11.847656 13.613281 11.464844 13.613281 11.226562 13.375 L 8 10.152344 L 4.777344 13.375 C 4.539062 13.613281 4.152344 13.613281 3.914062 13.375 L 2.625 12.085938 C 2.386719 11.847656 2.386719 11.464844 2.625 11.226562 L 5.847656 8 L 2.625 4.777344 C 2.390625 4.535156 2.390625 4.148438 2.625 3.914062 L 3.914062 2.625 C 4.152344 2.386719 4.539062 2.386719 4.777344 2.625 L 8 5.851562 L 11.226562 2.625 C 11.464844 2.386719 11.851562 2.386719 12.085938 2.625 L 13.375 3.914062 C 13.613281 4.152344 13.613281 4.539062 13.378906 4.777344 L 10.152344 8 L 13.375 11.226562 C 13.613281 11.464844 13.613281 11.847656 13.375 12.085938 Z M 13.375 12.085938 "/>
</g>
</svg>
