<?xml version="1.0" encoding="UTF-8"?>
<svg xmlns="http://www.w3.org/2000/svg" xmlns:xlink="http://www.w3.org/1999/xlink" viewBox="0 0 20 20" width="20px" height="20px">
<g id="surface35269672">
<path style=" stroke:none;fill-rule:nonzero;fill:rgb(8.627451%,39.607844%,73.725492%);fill-opacity:1;" d="M 8.847656 -0.0234375 C 7.339844 -0.0234375 6.128906 1.226562 6.128906 2.742188 L 6.128906 3.078125 L 3.078125 3.078125 C 2.652344 3.078125 2.308594 3.421875 2.308594 3.847656 L 2.308594 4.617188 L 1.539062 4.617188 L 1.539062 6.152344 L 3.078125 6.152344 L 3.078125 17.691406 C 3.078125 18.957031 4.121094 20 5.382812 20 L 14.617188 20 C 15.878906 20 16.921875 18.957031 16.921875 17.691406 L 16.921875 6.152344 L 18.460938 6.152344 L 18.460938 4.617188 L 17.691406 4.617188 L 17.691406 3.847656 C 17.691406 3.421875 17.347656 3.078125 16.921875 3.078125 L 13.871094 3.078125 L 13.871094 2.742188 C 13.871094 1.226562 12.660156 -0.0234375 11.152344 -0.0234375 Z M 8.847656 1.5625 L 11.152344 1.5625 C 11.773438 1.5625 12.285156 2.066406 12.285156 2.742188 L 12.285156 3.078125 L 7.714844 3.078125 L 7.714844 2.742188 C 7.714844 2.066406 8.226562 1.5625 8.847656 1.5625 Z M 4.617188 6.152344 L 8.558594 6.152344 C 8.652344 6.164062 8.746094 6.179688 8.847656 6.179688 L 11.152344 6.179688 C 11.253906 6.179688 11.347656 6.164062 11.441406 6.152344 L 15.382812 6.152344 L 15.382812 17.691406 C 15.382812 18.125 15.046875 18.460938 14.617188 18.460938 L 5.382812 18.460938 C 4.953125 18.460938 4.617188 18.125 4.617188 17.691406 Z M 6.152344 7.691406 L 6.152344 16.921875 L 7.691406 16.921875 L 7.691406 7.691406 Z M 9.230469 7.691406 L 9.230469 16.921875 L 10.769531 16.921875 L 10.769531 7.691406 Z M 12.308594 7.691406 L 12.308594 16.921875 L 13.847656 16.921875 L 13.847656 7.691406 Z M 12.308594 7.691406 "/>
</g>
</svg>
